<svg width="41" height="24" viewBox="0 0 41 24" fill="none" xmlns="http://www.w3.org/2000/svg">
<path d="M17.8711 23.4629C19.2793 23.4629 20.4551 22.4102 20.4551 20.5234V12.6211C20.6602 13.4551 21.3027 14.0977 22.2051 14.6309L36.3418 22.9023C36.9844 23.2852 37.5859 23.4629 38.2559 23.4629C39.6641 23.4629 40.8398 22.4102 40.8398 20.5234V3.55664C40.8398 1.66992 39.6777 0.630859 38.2695 0.630859C37.5996 0.630859 36.998 0.808594 36.3418 1.17773L22.2051 9.44922C21.2754 9.99609 20.6602 10.6113 20.4551 11.4316V3.55664C20.4551 1.66992 19.293 0.630859 17.8984 0.630859C17.2148 0.630859 16.6133 0.808594 15.957 1.17773L1.83398 9.44922C0.685547 10.1328 0.015625 10.8984 0.015625 12.0332C0.015625 13.1543 0.712891 13.9746 1.83398 14.6309L15.957 22.9023C16.5996 23.2852 17.2012 23.4629 17.8711 23.4629Z" fill="#3C3C43" fill-opacity="0.6"/>
</svg>
