<svg width="41" height="23" viewBox="0 0 41 23" fill="none" xmlns="http://www.w3.org/2000/svg">
<path d="M2.75439 22.9688C3.42432 22.9688 4.02588 22.791 4.68213 22.4082L18.8052 14.1367C19.7212 13.6035 20.3501 12.9609 20.5552 12.127V20.0293C20.5552 21.916 21.7446 22.9688 23.1392 22.9688C23.8091 22.9688 24.4106 22.791 25.0669 22.4082L39.1899 14.1367C40.311 13.4805 41.0083 12.6602 41.0083 11.5391C41.0083 10.4043 40.3384 9.63867 39.1899 8.95508L25.0669 0.683594C24.4106 0.314453 23.8091 0.136719 23.1255 0.136719C21.7173 0.136719 20.5552 1.17578 20.5552 3.0625V10.9375C20.3501 10.1172 19.7349 9.50195 18.8052 8.95508L4.68213 0.683594C4.02588 0.314453 3.42432 0.136719 2.74072 0.136719C1.34619 0.136719 0.17041 1.17578 0.17041 3.0625V20.0293C0.17041 21.916 1.35986 22.9688 2.75439 22.9688Z" fill="#3C3C43" fill-opacity="0.6"/>
</svg>
