<svg width="21" height="19" viewBox="0 0 21 19" fill="none" xmlns="http://www.w3.org/2000/svg">
<path d="M0.366699 8.83643C0.366699 9.32617 0.731934 9.72461 1.32129 9.72461C1.59521 9.72461 1.85254 9.5835 2.07666 9.39258L10.2778 2.51953C10.5269 2.30371 10.8174 2.30371 11.0747 2.51953L19.2593 9.39258C19.4834 9.5835 19.7407 9.72461 20.0229 9.72461C20.5625 9.72461 20.9692 9.38428 20.9692 8.85303C20.9692 8.5459 20.8447 8.28857 20.604 8.08105L18.2632 6.11377V2.59424C18.2632 2.2207 18.0142 1.97998 17.6406 1.97998H16.3457C15.9722 1.97998 15.7148 2.2207 15.7148 2.59424V3.98047L11.9629 0.826172C11.1826 0.162109 10.1782 0.162109 9.38965 0.826172L0.740234 8.08936C0.491211 8.28857 0.366699 8.5708 0.366699 8.83643ZM3.12256 16.332C3.12256 17.5522 3.91113 18.3076 5.18115 18.3076H16.1548C17.4248 18.3076 18.2134 17.5522 18.2134 16.332V10.1978L11.1909 4.3042C10.8672 4.03027 10.4688 4.03857 10.145 4.3042L3.12256 10.1895V16.332ZM12.8677 16.3652H8.45996V11.144C8.45996 10.7539 8.72559 10.4966 9.11572 10.4966H12.2202C12.6187 10.4966 12.8677 10.7539 12.8677 11.144V16.3652Z" fill="#EBEBF5" fill-opacity="0.6"/>
</svg>
