<svg width="22" height="19" viewBox="0 0 22 19" fill="none" xmlns="http://www.w3.org/2000/svg">
<path d="M0.44873 8.83643C0.44873 9.32617 0.813965 9.72461 1.40332 9.72461C1.67725 9.72461 1.93457 9.5835 2.15869 9.39258L10.3599 2.51953C10.6089 2.30371 10.8994 2.30371 11.1567 2.51953L19.3413 9.39258C19.5654 9.5835 19.8228 9.72461 20.105 9.72461C20.6445 9.72461 21.0513 9.38428 21.0513 8.85303C21.0513 8.5459 20.9268 8.28857 20.686 8.08105L18.3452 6.11377V2.59424C18.3452 2.2207 18.0962 1.97998 17.7227 1.97998H16.4277C16.0542 1.97998 15.7969 2.2207 15.7969 2.59424V3.98047L12.0449 0.826172C11.2646 0.162109 10.2603 0.162109 9.47168 0.826172L0.822266 8.08936C0.573242 8.28857 0.44873 8.5708 0.44873 8.83643ZM3.20459 16.332C3.20459 17.5522 3.99316 18.3076 5.26318 18.3076H16.2368C17.5068 18.3076 18.2954 17.5522 18.2954 16.332V10.1978L11.2729 4.3042C10.9492 4.03027 10.5508 4.03857 10.2271 4.3042L3.20459 10.1895V16.332ZM12.9497 16.3652H8.54199V11.144C8.54199 10.7539 8.80762 10.4966 9.19775 10.4966H12.3022C12.7007 10.4966 12.9497 10.7539 12.9497 11.144V16.3652Z" fill="white"/>
</svg>
