<svg width="19" height="24" viewBox="0 0 19 24" fill="none" xmlns="http://www.w3.org/2000/svg">
<path d="M2.28125 23.873H5.64453C7.09375 23.873 7.83203 23.1348 7.83203 21.6855V2.58594C7.83203 1.13672 7.09375 0.425781 5.64453 0.384766H2.28125C0.818359 0.384766 0.0800781 1.13672 0.0800781 2.58594V21.6855C0.0527344 23.1348 0.791016 23.873 2.28125 23.873ZM13.3418 23.873H16.7188C18.168 23.873 18.9062 23.1348 18.9062 21.6855V2.58594C18.9062 1.13672 18.168 0.384766 16.7188 0.384766H13.3418C11.8926 0.384766 11.1543 1.13672 11.1543 2.58594V21.6855C11.1543 23.1348 11.8652 23.873 13.3418 23.873Z" fill="#3C3C43" fill-opacity="0.6"/>
</svg>
