<svg width="19" height="18" viewBox="0 0 19 18" fill="none" xmlns="http://www.w3.org/2000/svg">
<path d="M9.39355 17.6646C14.1416 17.6646 18.0513 13.7549 18.0513 9.00684C18.0513 4.26709 14.1333 0.349121 9.38525 0.349121C4.64551 0.349121 0.73584 4.26709 0.73584 9.00684C0.73584 13.7549 4.64551 17.6646 9.39355 17.6646ZM9.39355 11.9038C7.13574 11.9038 5.38428 12.7007 4.47949 13.6553C3.34229 12.4434 2.64502 10.8081 2.64502 9.00684C2.64502 5.26318 5.6416 2.25 9.38525 2.25C13.1372 2.25 16.1421 5.26318 16.1504 9.00684C16.1504 10.8164 15.4531 12.4434 14.3076 13.6553C13.4111 12.7007 11.6597 11.9038 9.39355 11.9038ZM9.39355 10.5674C11.0039 10.584 12.2573 9.19775 12.2573 7.42139C12.2573 5.75293 10.9956 4.3418 9.39355 4.3418C7.7915 4.3418 6.51318 5.75293 6.52979 7.42139C6.52979 9.19775 7.7832 10.5591 9.39355 10.5674Z" fill="#EBEBF5" fill-opacity="0.6"/>
</svg>
