<svg width="18" height="18" viewBox="0 0 18 18" fill="none" xmlns="http://www.w3.org/2000/svg">
<path d="M8.75 17.6646C13.498 17.6646 17.4077 13.7549 17.4077 9.00684C17.4077 4.26709 13.4897 0.349121 8.7417 0.349121C4.00195 0.349121 0.0922852 4.26709 0.0922852 9.00684C0.0922852 13.7549 4.00195 17.6646 8.75 17.6646ZM8.75 11.9038C6.49219 11.9038 4.74072 12.7007 3.83594 13.6553C2.69873 12.4434 2.00146 10.8081 2.00146 9.00684C2.00146 5.26318 4.99805 2.25 8.7417 2.25C12.4937 2.25 15.4985 5.26318 15.5068 9.00684C15.5068 10.8164 14.8096 12.4434 13.6641 13.6553C12.7676 12.7007 11.0161 11.9038 8.75 11.9038ZM8.75 10.5674C10.3604 10.584 11.6138 9.19775 11.6138 7.42139C11.6138 5.75293 10.3521 4.3418 8.75 4.3418C7.14795 4.3418 5.86963 5.75293 5.88623 7.42139C5.88623 9.19775 7.13965 10.5591 8.75 10.5674Z" fill="white"/>
</svg>
