<svg width="17" height="18" viewBox="0 0 17 18" fill="none" xmlns="http://www.w3.org/2000/svg">
<path d="M-0.00927734 7.5376C-0.00927734 11.3228 3.06201 14.394 6.84717 14.394C8.19189 14.394 9.42871 13.9956 10.4663 13.3232L14.0771 16.9341C14.3511 17.208 14.7163 17.3408 15.0981 17.3408C15.9116 17.3408 16.5093 16.7183 16.5093 15.9214C16.5093 15.5396 16.3682 15.1826 16.1025 14.917L12.5249 11.3228C13.272 10.252 13.7036 8.94873 13.7036 7.5376C13.7036 3.74414 10.6323 0.672852 6.84717 0.672852C3.06201 0.672852 -0.00927734 3.74414 -0.00927734 7.5376ZM2.01611 7.5376C2.01611 4.86475 4.17432 2.69824 6.84717 2.69824C9.52002 2.69824 11.6865 4.86475 11.6865 7.5376C11.6865 10.2021 9.52002 12.3687 6.84717 12.3687C4.17432 12.3687 2.01611 10.2021 2.01611 7.5376Z" fill="white"/>
</svg>
