<svg width="18" height="18" viewBox="0 0 18 18" fill="none" xmlns="http://www.w3.org/2000/svg">
<path d="M0.65918 7.5376C0.65918 11.3228 3.73047 14.394 7.51562 14.394C8.86035 14.394 10.0972 13.9956 11.1348 13.3232L14.7456 16.9341C15.0195 17.208 15.3848 17.3408 15.7666 17.3408C16.5801 17.3408 17.1777 16.7183 17.1777 15.9214C17.1777 15.5396 17.0366 15.1826 16.771 14.917L13.1934 11.3228C13.9404 10.252 14.3721 8.94873 14.3721 7.5376C14.3721 3.74414 11.3008 0.672852 7.51562 0.672852C3.73047 0.672852 0.65918 3.74414 0.65918 7.5376ZM2.68457 7.5376C2.68457 4.86475 4.84277 2.69824 7.51562 2.69824C10.1885 2.69824 12.355 4.86475 12.355 7.5376C12.355 10.2021 10.1885 12.3687 7.51562 12.3687C4.84277 12.3687 2.68457 10.2021 2.68457 7.5376Z" fill="#EBEBF5" fill-opacity="0.6"/>
</svg>
