<svg width="20" height="19" viewBox="0 0 20 19" fill="none" xmlns="http://www.w3.org/2000/svg">
<path d="M4.0625 18.1914C4.49414 18.5234 5.01709 18.4155 5.61475 17.9839L9.88135 14.8545L14.1396 17.9839C14.7373 18.4155 15.2603 18.5234 15.6919 18.1914C16.1152 17.876 16.1982 17.3447 15.9658 16.6558L14.2808 11.6504L18.5806 8.5708C19.1782 8.14746 19.4272 7.66602 19.2612 7.15967C19.0869 6.66162 18.6138 6.4126 17.875 6.4209L12.6123 6.4624L11.002 1.42383C10.7778 0.718262 10.4126 0.344727 9.88135 0.344727C9.3501 0.344727 8.97656 0.718262 8.75244 1.42383L7.15039 6.4624L1.87109 6.4209C1.14893 6.4126 0.66748 6.66162 0.493164 7.15967C0.318848 7.66602 0.584473 8.14746 1.17383 8.5708L5.47363 11.6504L3.78857 16.6558C3.55615 17.3447 3.63916 17.876 4.0625 18.1914ZM5.72266 15.9253C5.70605 15.9087 5.70605 15.9004 5.72266 15.8506L7.2417 11.6172C7.39941 11.1523 7.36621 10.9033 6.92627 10.6128L3.20752 8.08105C3.17432 8.06445 3.15771 8.04785 3.16602 8.02295C3.17432 8.00635 3.19092 7.99805 3.23242 7.99805L7.73145 8.12256C8.22119 8.13916 8.44531 8.00635 8.58643 7.5249L9.83154 3.2085C9.84814 3.15869 9.85645 3.15039 9.88135 3.15039C9.89795 3.15039 9.90625 3.15869 9.92285 3.2085L11.168 7.5249C11.3091 8.00635 11.5332 8.13916 12.0312 8.12256L16.522 7.99805C16.5635 7.99805 16.5884 8.00635 16.5967 8.02295C16.5967 8.04785 16.5884 8.05615 16.5552 8.08105L12.8281 10.6128C12.3965 10.9033 12.355 11.1523 12.521 11.6172L14.0317 15.8506C14.0483 15.9004 14.0483 15.9087 14.0317 15.9253C14.0234 15.9419 13.9985 15.9253 13.9653 15.9087L10.4126 13.1445C10.0225 12.8374 9.73193 12.8374 9.3418 13.1445L5.78906 15.9087C5.75586 15.9253 5.73096 15.9419 5.72266 15.9253Z" fill="#EBEBF5" fill-opacity="0.6"/>
</svg>
