<svg width="20" height="19" viewBox="0 0 20 19" fill="none" xmlns="http://www.w3.org/2000/svg">
<path d="M4.43115 18.1914C4.86279 18.5234 5.38574 18.4155 5.9834 17.9839L10.25 14.8545L14.5083 17.9839C15.106 18.4155 15.6289 18.5234 16.0605 18.1914C16.4839 17.876 16.5669 17.3447 16.3345 16.6558L14.6494 11.6504L18.9492 8.5708C19.5469 8.14746 19.7959 7.66602 19.6299 7.15967C19.4556 6.66162 18.9824 6.4126 18.2437 6.4209L12.981 6.4624L11.3706 1.42383C11.1465 0.718262 10.7812 0.344727 10.25 0.344727C9.71875 0.344727 9.34521 0.718262 9.12109 1.42383L7.51904 6.4624L2.23975 6.4209C1.51758 6.4126 1.03613 6.66162 0.861816 7.15967C0.6875 7.66602 0.953125 8.14746 1.54248 8.5708L5.84229 11.6504L4.15723 16.6558C3.9248 17.3447 4.00781 17.876 4.43115 18.1914ZM6.09131 15.9253C6.07471 15.9087 6.07471 15.9004 6.09131 15.8506L7.61035 11.6172C7.76807 11.1523 7.73486 10.9033 7.29492 10.6128L3.57617 8.08105C3.54297 8.06445 3.52637 8.04785 3.53467 8.02295C3.54297 8.00635 3.55957 7.99805 3.60107 7.99805L8.1001 8.12256C8.58984 8.13916 8.81396 8.00635 8.95508 7.5249L10.2002 3.2085C10.2168 3.15869 10.2251 3.15039 10.25 3.15039C10.2666 3.15039 10.2749 3.15869 10.2915 3.2085L11.5366 7.5249C11.6777 8.00635 11.9019 8.13916 12.3999 8.12256L16.8906 7.99805C16.9321 7.99805 16.957 8.00635 16.9653 8.02295C16.9653 8.04785 16.957 8.05615 16.9238 8.08105L13.1968 10.6128C12.7651 10.9033 12.7236 11.1523 12.8896 11.6172L14.4004 15.8506C14.417 15.9004 14.417 15.9087 14.4004 15.9253C14.3921 15.9419 14.3672 15.9253 14.334 15.9087L10.7812 13.1445C10.3911 12.8374 10.1006 12.8374 9.71045 13.1445L6.15771 15.9087C6.12451 15.9253 6.09961 15.9419 6.09131 15.9253Z" fill="white"/>
</svg>
